<?xml version="1.0" encoding="utf-8"?>
<!-- Generator: Adobe Illustrator 21.1.0, SVG Export Plug-In . SVG Version: 6.00 Build 0)  -->
<svg version="1.1" id="Layer_1" xmlns="http://www.w3.org/2000/svg" xmlns:xlink="http://www.w3.org/1999/xlink" x="0px" y="0px"
	 viewBox="0 0 35 35" style="enable-background:new 0 0 35 35;" xml:space="preserve">
<style type="text/css">
	.st0{fill:#FFFFFF;}
	.st1{fill:none;}
</style>
<path class="st0" d="M32,1H3C1.9,1,1,1.9,1,3v29c0,1.1,0.9,2,2,2h29c1.1,0,2-0.9,2-2V3C34,1.9,33.1,1,32,1z"/>
<g>
	<path d="M32,0H3C1.3,0,0,1.3,0,3v29c0,1.7,1.3,3,3,3h29c1.7,0,3-1.3,3-3V3C35,1.3,33.7,0,32,0z M34,32c0,1.1-0.9,2-2,2H3
		c-1.1,0-2-0.9-2-2V3c0-1.1,0.9-2,2-2h29c1.1,0,2,0.9,2,2V32z"/>
</g>
<g>
	<path d="M30.4,5H4.6C4.2,5,3.8,4.7,3.8,4.3s0.3-0.8,0.8-0.8h25.8c0.4,0,0.8,0.3,0.8,0.8S30.8,5,30.4,5z"/>
</g>
<path d="M29.4,22.7L29.4,22.7L29.4,22.7c0-0.9-0.3-1.5-0.4-1.6c0,0-1.6-3.9-2.1-5.2c-0.8-2.1-1.7-4.1-4.3-4.1h-0.8h-8.3h-0.8
	c-2.7,0-3.6,2-4.3,4.1l-2.2,5.1c-0.3,0.5-0.5,1.1-0.5,1.7v1.6c0,0.2,0,0.5,0.1,0.7c-0.1,0.1-0.1,0.3-0.1,0.4v4.7
	c0,0.7,0.6,1.3,1.3,1.3h2.6c0.7,0,1.3-0.6,1.3-1.3v-2.4h13.6v2.4c0,0.7,0.6,1.3,1.3,1.3h2.5c0.7,0,1.3-0.6,1.3-1.3v-4.7
	c0-0.2,0-0.3-0.1-0.4c0.1-0.2,0.1-0.5,0.1-0.7V22.7z M9.8,16.5c0.8-2.3,1.5-3,2.8-3H13h9.2h0.4c1.3,0,1.9,0.8,2.8,3
	c0.3,0.8,1.5,3,1.5,3c-0.5-0.2-1-0.3-1.6-0.3H9.7c-0.5,0-1,0.1-1.4,0.2L9.8,16.5z M11.1,24.9H8.4c-0.5,0-0.9-0.4-0.9-0.9
	c0-0.5,0.4-0.9,0.9-0.9h2.7c0.5,0,0.9,0.4,0.9,0.9C12,24.5,11.6,24.9,11.1,24.9z M26.6,24.9h-2.7c-0.5,0-0.9-0.4-0.9-0.9
	c0-0.5,0.4-0.9,0.9-0.9h2.7c0.5,0,0.9,0.4,0.9,0.9C27.5,24.5,27.1,24.9,26.6,24.9z"/>
<g>
	<g>
		<path d="M26.5,10c-0.2,0-0.4-0.1-0.5-0.2l-2.3-2.2c-0.3-0.3-0.3-0.8,0-1.1c0.3-0.3,0.8-0.3,1.1,0L27,8.7c0.3,0.3,0.3,0.8,0,1.1
			C26.9,9.9,26.7,10,26.5,10z"/>
	</g>
	<g>
		<path d="M20.6,9.9c-0.3,0-0.5-0.1-0.7-0.4l-1.1-2.1c-0.2-0.4,0-0.8,0.3-1c0.4-0.2,0.8,0,1,0.3l1.1,2.1c0.2,0.4,0,0.8-0.3,1
			C20.9,9.9,20.8,9.9,20.6,9.9z"/>
	</g>
	<g>
		<path d="M8.5,10C8.3,10,8.1,9.9,8,9.7C7.7,9.4,7.7,8.9,8,8.7l2.3-2.2c0.3-0.3,0.8-0.3,1.1,0c0.3,0.3,0.3,0.8,0,1.1L9,9.8
			C8.9,9.9,8.7,10,8.5,10z"/>
	</g>
	<g>
		<path d="M14.4,9.9c-0.1,0-0.2,0-0.3-0.1c-0.4-0.2-0.5-0.6-0.3-1l1.1-2.1c0.2-0.4,0.6-0.5,1-0.3c0.4,0.2,0.5,0.6,0.3,1L15,9.5
			C14.9,9.8,14.6,9.9,14.4,9.9z"/>
	</g>
</g>
</svg>
