<?xml version="1.0" encoding="utf-8"?>
<!-- Generator: Adobe Illustrator 21.1.0, SVG Export Plug-In . SVG Version: 6.00 Build 0)  -->
<svg version="1.1" id="Layer_1" xmlns="http://www.w3.org/2000/svg" xmlns:xlink="http://www.w3.org/1999/xlink" x="0px" y="0px"
	 viewBox="0 0 35 35" style="enable-background:new 0 0 35 35;" xml:space="preserve">
<style type="text/css">
	.st0{fill:#FFFFFF;}
	.st1{fill:none;}
</style>
<g>
	<path class="st0" d="M25.1,18.4c-0.1-0.1-0.3-0.2-0.4-0.2h-2.4c-0.3,0-0.5,0.2-0.5,0.5v3.6c0,0.3,0.2,0.5,0.5,0.5h5.5
		c0.5,0,0.7-0.5,0.4-0.9L25.1,18.4z"/>
	<path class="st0" d="M32,1H3C1.9,1,1,1.9,1,3v29c0,1.1,0.9,2,2,2h29c1.1,0,2-0.9,2-2V3C34,1.9,33.1,1,32,1z M22.7,10.3
		c0-0.7,0.2-1.5,0.6-2.1l3-5.4l3.1,5.5c0.3,0.6,0.5,1.2,0.5,1.9v0.3c0,1-0.4,2-1.1,2.8c-0.6,0.6-1.5,1-2.4,1c-0.9,0-1.8-0.3-2.4-1
		c-0.7-0.7-1.1-1.7-1.1-2.8V10.3z M30.2,28.3c0,0.3-0.2,0.5-0.5,0.5h-2.7c0,0.1,0,0.1,0,0.2c0,1.4-1.2,2.6-2.6,2.6
		c-1.4,0-2.6-1.2-2.6-2.6c0-0.1,0-0.2,0-0.2h-8.2c0,0.1,0,0.1,0,0.2c0,1.4-1.2,2.6-2.6,2.6c-1.4,0-2.6-1.2-2.6-2.6
		c0-0.1,0-0.2,0-0.2H5.4c-0.3,0-0.5-0.2-0.5-0.5V14.7c0-0.3,0.2-0.5,0.5-0.5h14.6c0.3,0,0.5,0.2,0.5,0.5l0.2,2.4h4.5
		c0.2,0,0.3,0.1,0.4,0.2l4.4,5.3c0.1,0.1,0.1,0.2,0.1,0.3V28.3z"/>
	<path d="M32,0H3C1.3,0,0,1.3,0,3v29c0,1.7,1.3,3,3,3h29c1.7,0,3-1.3,3-3V3C35,1.3,33.7,0,32,0z M34,32c0,1.1-0.9,2-2,2H3
		c-1.1,0-2-0.9-2-2V3c0-1.1,0.9-2,2-2h29c1.1,0,2,0.9,2,2V32z"/>
	<circle class="st0" cx="11.1" cy="29" r="1.4"/>
	<circle class="st0" cx="24.3" cy="29" r="1.4"/>
	<path d="M30,22.6l-4.4-5.3c-0.1-0.1-0.3-0.2-0.4-0.2h-4.5l-0.2-2.4c0-0.3-0.2-0.5-0.5-0.5H5.4c-0.3,0-0.5,0.2-0.5,0.5v13.6
		c0,0.3,0.2,0.5,0.5,0.5h3.1c0,0.1,0,0.1,0,0.2c0,1.4,1.2,2.6,2.6,2.6c1.4,0,2.6-1.2,2.6-2.6c0-0.1,0-0.2,0-0.2h8.2
		c0,0.1,0,0.1,0,0.2c0,1.4,1.2,2.6,2.6,2.6c1.4,0,2.6-1.2,2.6-2.6c0-0.1,0-0.2,0-0.2h2.7c0.3,0,0.5-0.2,0.5-0.5V23
		C30.2,22.8,30.1,22.7,30,22.6z M11.1,30.4c-0.8,0-1.4-0.6-1.4-1.4s0.6-1.4,1.4-1.4c0.8,0,1.4,0.6,1.4,1.4S11.8,30.4,11.1,30.4z
		 M24.3,30.4c-0.8,0-1.4-0.6-1.4-1.4s0.6-1.4,1.4-1.4c0.8,0,1.4,0.6,1.4,1.4S25.1,30.4,24.3,30.4z M27.8,22.9h-5.5
		c-0.3,0-0.5-0.2-0.5-0.5v-3.6c0-0.3,0.2-0.5,0.5-0.5h2.4c0.2,0,0.3,0.1,0.4,0.2l3.1,3.6C28.5,22.3,28.3,22.9,27.8,22.9z"/>
	<path d="M26.3,14.2c0.9,0,1.8-0.3,2.4-1c0.7-0.7,1.1-1.7,1.1-2.8v-0.3c0-0.7-0.2-1.3-0.5-1.9l-3.1-5.5l-3,5.4
		c-0.4,0.6-0.6,1.4-0.6,2.1v0.2c0,1,0.4,2,1.1,2.8C24.5,13.9,25.4,14.2,26.3,14.2z"/>
</g>
</svg>
