<?xml version="1.0" encoding="utf-8"?>
<!-- Generator: Adobe Illustrator 21.1.0, SVG Export Plug-In . SVG Version: 6.00 Build 0)  -->
<svg version="1.1" id="Layer_1" xmlns="http://www.w3.org/2000/svg" xmlns:xlink="http://www.w3.org/1999/xlink" x="0px" y="0px"
	 viewBox="0 0 35 35" style="enable-background:new 0 0 35 35;" xml:space="preserve">
<style type="text/css">
	.st0{fill:#FFFFFF;}
	.st1{fill:none;}
</style>
<g>
	<path class="st0" d="M32,1H3C1.9,1,1,1.9,1,3v29c0,1.1,0.9,2,2,2h29c1.1,0,2-0.9,2-2V3C34,1.9,33.1,1,32,1z"/>
	<path d="M32,0H3C1.3,0,0,1.3,0,3v29c0,1.7,1.3,3,3,3h29c1.7,0,3-1.3,3-3V3C35,1.3,33.7,0,32,0z M34,32c0,1.1-0.9,2-2,2H3
		c-1.1,0-2-0.9-2-2V3c0-1.1,0.9-2,2-2h29c1.1,0,2,0.9,2,2V32z"/>
</g>
<path d="M28,6.6H7c-1.1,0-2,0.9-2,2V12c0,1.1,0.9,2,2,2h2.9v12.8c0,0,0,0,0,0l1.5,1.6l1.5-1.6l1.5,1.6l1.5-1.6l1.5,1.6l1.5-1.6
	l1.5,1.6l1.5-1.6l1.5,1.6l1.5-1.6c0,0,0,0,0,0V14H28c1.1,0,2-0.9,2-2V8.5C30,7.5,29.1,6.6,28,6.6z M29,12c0,0.5-0.4,1-1,1h-2.9v-2.2
	h1.8c0.3,0,0.5-0.2,0.5-0.5c0-0.3-0.2-0.5-0.5-0.5H8.1c-0.3,0-0.5,0.2-0.5,0.5c0,0.3,0.2,0.5,0.5,0.5h1.8V13H7c-0.5,0-1-0.4-1-1V8.5
	c0-0.5,0.4-1,1-1h21c0.5,0,1,0.4,1,1V12z"/>
<g>
	<path class="st0" d="M22.5,23.7H12.5c-0.3,0-0.5-0.2-0.5-0.5s0.2-0.5,0.5-0.5h10.1c0.3,0,0.5,0.2,0.5,0.5S22.8,23.7,22.5,23.7z"/>
</g>
<g>
	<path class="st0" d="M22.5,17.1H12.5c-0.3,0-0.5-0.2-0.5-0.5s0.2-0.5,0.5-0.5h10.1c0.3,0,0.5,0.2,0.5,0.5S22.8,17.1,22.5,17.1z"/>
</g>
<g>
	<path class="st0" d="M22.5,13.4H12.5c-0.3,0-0.5-0.2-0.5-0.5s0.2-0.5,0.5-0.5h10.1c0.3,0,0.5,0.2,0.5,0.5S22.8,13.4,22.5,13.4z"/>
</g>
</svg>
