<?xml version="1.0" encoding="utf-8"?>
<!-- Generator: Adobe Illustrator 21.1.0, SVG Export Plug-In . SVG Version: 6.00 Build 0)  -->
<svg version="1.1" id="Layer_1" xmlns="http://www.w3.org/2000/svg" xmlns:xlink="http://www.w3.org/1999/xlink" x="0px" y="0px"
	 viewBox="0 0 35 35" style="enable-background:new 0 0 35 35;" xml:space="preserve">
<style type="text/css">
	.st0{fill:#FFFFFF;}
	.st1{fill:none;}
</style>
<path class="st0" d="M32,1H3C1.9,1,1,1.9,1,3v29c0,1.1,0.9,2,2,2h29c1.1,0,2-0.9,2-2V3C34,1.9,33.1,1,32,1z"/>
<g>
	<path d="M32,0H3C1.3,0,0,1.3,0,3v29c0,1.7,1.3,3,3,3h29c1.7,0,3-1.3,3-3V3C35,1.3,33.7,0,32,0z M34,32c0,1.1-0.9,2-2,2H3
		c-1.1,0-2-0.9-2-2V3c0-1.1,0.9-2,2-2h29c1.1,0,2,0.9,2,2V32z"/>
</g>
<g>
	<path d="M20.2,20.8l0.2,0.8l-0.7-0.1L17.2,21l0.8,4.8l-1.5-5.1l-0.1-0.4l0.5,0l2.2,0.2l-1.4-4l-0.4-1.1l1.2,0.3l4.2,0.9
		c-0.4-1-1-1.8-1.9-2.4l-1-7.8c0.3,0,0.5-0.3,0.5-0.5c0-0.2-0.1-0.4-0.3-0.5L20.2,5c0.1-0.2,0.1-0.4,0-0.6c-0.1-0.2-0.3-0.3-0.5-0.3
		h-4.5c-0.2,0-0.4,0.1-0.5,0.3c-0.1,0.2-0.1,0.4,0,0.6L15,5.3c-0.2,0.1-0.3,0.3-0.3,0.5c0,0.3,0.2,0.5,0.5,0.5l-1,7.8
		c-1.4,1-2.3,2.6-2.3,4.5v10c0,1.2,1,2.2,2.2,2.2h6.7c1.2,0,2.2-1,2.2-2.2v-10l-3.9-1.4L20.2,20.8z"/>
</g>
</svg>
