<?xml version="1.0" encoding="utf-8"?>
<!-- Generator: Adobe Illustrator 21.1.0, SVG Export Plug-In . SVG Version: 6.00 Build 0)  -->
<svg version="1.1" id="Layer_1" xmlns="http://www.w3.org/2000/svg" xmlns:xlink="http://www.w3.org/1999/xlink" x="0px" y="0px"
	 viewBox="0 0 35 35" style="enable-background:new 0 0 35 35;" xml:space="preserve">
<style type="text/css">
	.st0{fill:#FFFFFF;}
	.st1{fill:none;}
</style>
<path class="st0" d="M32,1H3C1.9,1,1,1.9,1,3v29c0,1.1,0.9,2,2,2h29c1.1,0,2-0.9,2-2V3C34,1.9,33.1,1,32,1z"/>
<g>
	<path d="M32,0H3C1.3,0,0,1.3,0,3v29c0,1.7,1.3,3,3,3h29c1.7,0,3-1.3,3-3V3C35,1.3,33.7,0,32,0z M34,32c0,1.1-0.9,2-2,2H3
		c-1.1,0-2-0.9-2-2V3c0-1.1,0.9-2,2-2h29c1.1,0,2,0.9,2,2V32z"/>
</g>
<g>
	<path d="M28.3,11.8L18,17.1v12.2c0.1,0,0.1,0,0.1-0.1c3.2-1.7,6.4-3.4,9.6-5c0.4-0.2,0.6-0.6,0.6-1.1c0-3.7,0-7.4,0-11
		C28.3,12,28.3,11.9,28.3,11.8z"/>
	<path d="M13.3,15.2c0,0.1,0,0.2,0,0.3c0,1.4,0,2.8,0,4.2c0,0.1,0,2.5,0,2.5l-1.7-2.9l-1.5,1v-1.9c0,0,0-4.8,0-4.9l-3.4-1.8
		c0,0.1,0,0.2,0,0.3c0,3.7,0,7.5,0,11.2c0,0.5,0.2,0.8,0.6,1c2.5,1.3,4.9,2.6,7.4,3.9c0.7,0.4,1.5,0.8,2.3,1.2V17.1L13.3,15.2z"/>
	<path d="M27.5,10.8c-1-0.5-2.1-1.1-3.1-1.6c-0.2-0.1-0.4-0.1-0.6,0c-2.2,1.1-4.4,2.2-6.5,3.3c-1.2,0.6-2.3,1.2-3.5,1.8l2.3,1.2
		l1.3,0.7l0.3-0.1l10-5.2C27.6,10.9,27.6,10.9,27.5,10.8z"/>
	<path d="M21,7.4c-0.1-0.1-0.1-0.1-0.2-0.1c-0.9-0.5-1.9-1-2.8-1.5c-0.4-0.2-0.7-0.2-1.1,0c-3.2,1.7-6.3,3.3-9.5,5
		c0,0-0.1,0-0.1,0.1l3.3,1.7C10.7,12.6,19.7,8.1,21,7.4z"/>
</g>
</svg>
