<?xml version="1.0" encoding="utf-8"?>
<!-- Generator: Adobe Illustrator 21.1.0, SVG Export Plug-In . SVG Version: 6.00 Build 0)  -->
<svg version="1.1" id="Layer_1" xmlns="http://www.w3.org/2000/svg" xmlns:xlink="http://www.w3.org/1999/xlink" x="0px" y="0px"
	 viewBox="0 0 35 35" style="enable-background:new 0 0 35 35;" xml:space="preserve">
<style type="text/css">
	.st0{fill:#FFFFFF;}
	.st1{fill:none;}
</style>
<g>
	<path class="st0" d="M32,1H3C1.9,1,1,1.9,1,3v29c0,1.1,0.9,2,2,2h29c1.1,0,2-0.9,2-2V3C34,1.9,33.1,1,32,1z M18.8,25.7
		c0,0-0.1,0-0.1,0.2v1.7c0,0.5-0.4,0.9-0.9,0.9H17c-0.5,0-0.9-0.4-0.9-0.9v-1.6c0-0.1-0.1-0.2-0.2-0.2c-0.1,0-2.3-0.4-3.4-0.9
		c-0.3-0.1-0.5-0.5-0.4-0.9l0.4-1.1c0.1-0.3,0.4-0.5,0.8-0.5c0.1,0,0.3,0,0.4,0.1c0,0,1.9,0.9,3.2,0.9c1.6,0,2.7-0.9,2.7-2.1
		c0-1.1-0.8-1.9-2.7-2.6c-2.4-0.9-4.6-2.1-4.6-4.8c0-2.2,1.5-3.9,3.8-4.4c0,0,0.2-0.1,0.2-0.2l0-1.6c0-0.5,0.4-0.9,0.9-0.9H18
		c0.5,0,0.9,0.4,0.9,0.9l0,1.6c0,0.1,0.1,0.1,0.1,0.1c0,0,1.9,0.3,2.8,0.7c0.3,0.1,0.5,0.5,0.4,0.9l-0.4,1.1
		c-0.1,0.3-0.4,0.5-0.8,0.5c-0.1,0-0.3,0-0.4-0.1c0,0-1.2-0.6-2.7-0.6c-1.7,0-2.4,1-2.4,1.8c0,1,0.7,1.6,3,2.5
		c3.1,1.2,4.4,2.7,4.4,5.1C22.8,23.3,21.3,25.1,18.8,25.7z"/>
	<path d="M32,0H3C1.3,0,0,1.3,0,3v29c0,1.7,1.3,3,3,3h29c1.7,0,3-1.3,3-3V3C35,1.3,33.7,0,32,0z M34,32c0,1.1-0.9,2-2,2H3
		c-1.1,0-2-0.9-2-2V3c0-1.1,0.9-2,2-2h29c1.1,0,2,0.9,2,2V32z"/>
	<path d="M18.5,15.9c-2.3-0.9-3-1.5-3-2.5c0-0.8,0.6-1.8,2.4-1.8c1.5,0,2.7,0.6,2.7,0.6c0.1,0.1,0.3,0.1,0.4,0.1
		c0.3,0,0.6-0.2,0.8-0.5l0.4-1.1c0.1-0.4-0.1-0.7-0.4-0.9C20.8,9.5,19,9.2,19,9.2c0,0-0.1,0-0.1-0.1l0-1.6c0-0.5-0.4-0.9-0.9-0.9
		h-0.8c-0.5,0-0.9,0.4-0.9,0.9l0,1.6c0,0.1-0.1,0.2-0.2,0.2c-2.3,0.6-3.8,2.3-3.8,4.4c0,2.7,2.2,3.9,4.6,4.8
		c1.9,0.8,2.7,1.5,2.7,2.6c0,1.2-1.1,2.1-2.7,2.1c-1.4,0-3.2-0.9-3.2-0.9c-0.1-0.1-0.2-0.1-0.4-0.1c-0.3,0-0.7,0.2-0.8,0.5l-0.4,1.1
		c-0.1,0.4,0.1,0.7,0.4,0.9c1.1,0.6,3.3,0.9,3.4,0.9c0,0,0.2,0.1,0.2,0.2v1.6c0,0.5,0.4,0.9,0.9,0.9h0.8c0.5,0,0.9-0.4,0.9-0.9v-1.7
		c0-0.2,0.1-0.2,0.1-0.2c2.5-0.6,4-2.4,4-4.7C22.8,18.6,21.5,17.1,18.5,15.9z"/>
</g>
</svg>
