<?xml version="1.0" encoding="utf-8"?>
<!-- Generator: Adobe Illustrator 21.1.0, SVG Export Plug-In . SVG Version: 6.00 Build 0)  -->
<svg version="1.1" id="Layer_1" xmlns="http://www.w3.org/2000/svg" xmlns:xlink="http://www.w3.org/1999/xlink" x="0px" y="0px"
	 viewBox="0 0 35 35" style="enable-background:new 0 0 35 35;" xml:space="preserve">
<style type="text/css">
	.st0{fill:#FFFFFF;}
	.st1{fill:none;}
</style>
<g>
	<path class="st0" d="M32,1H3C1.9,1,1,1.9,1,3v29c0,1.1,0.9,2,2,2h29c1.1,0,2-0.9,2-2V3C34,1.9,33.1,1,32,1z M22.3,25.6
		c-1.2,0.4-1.9-0.2-2.3-1.2l-1-2.3c0-0.1-0.1-0.1-0.1-0.1h-4.2c-0.2,0-0.3,0.2-0.3,0.4c0,0,0,1.2,0,1.5c0,0.1,0,0,0,0.1
		c-0.1,1.6-1.4,1.6-1.4,1.6s-5.2,0-5.4,0S6.3,25.4,6.2,24C6.2,22,7.6,22,7.6,22h2.7c0.1,0,0.1,0,0.1-0.1c-3.6-3.5-0.9-7.2,2.2-7.2
		h3.3h2.5c1.2,0,2.1,0.5,2.5,1.4l2.5,7.5C23.5,24.2,23.5,25.1,22.3,25.6z M24.9,17.1c-2.2,0-3.9-1.8-3.9-3.9s1.8-3.9,3.9-3.9
		c2.2,0,3.9,1.8,3.9,3.9S27,17.1,24.9,17.1z"/>
	<path d="M32,0H3C1.3,0,0,1.3,0,3v29c0,1.7,1.3,3,3,3h29c1.7,0,3-1.3,3-3V3C35,1.3,33.7,0,32,0z M34,32c0,1.1-0.9,2-2,2H3
		c-1.1,0-2-0.9-2-2V3c0-1.1,0.9-2,2-2h29c1.1,0,2,0.9,2,2V32z"/>
	<path d="M20.8,16.1c-0.4-0.9-1.3-1.4-2.5-1.4h-2.5h-3.3c-3.2,0-5.8,3.7-2.2,7.2c0,0.1,0,0.1-0.1,0.1H7.6c0,0-1.4,0-1.4,2.1
		c0.1,1.3,1.1,1.5,1.3,1.5s5.4,0,5.4,0s1.4,0,1.4-1.6c0-0.1,0,0,0-0.1c0-0.2,0-1.5,0-1.5c0-0.2,0.1-0.4,0.3-0.4h4.2
		c0.1,0,0.1,0.1,0.1,0.1l1,2.3c0.4,0.9,1.1,1.6,2.3,1.2c1.1-0.4,1.2-1.3,1-2L20.8,16.1z"/>
	<circle cx="24.9" cy="13.2" r="3.9"/>
</g>
</svg>
