<?xml version="1.0" encoding="utf-8"?>
<!-- Generator: Adobe Illustrator 21.1.0, SVG Export Plug-In . SVG Version: 6.00 Build 0)  -->
<svg version="1.1" id="Layer_1" xmlns="http://www.w3.org/2000/svg" xmlns:xlink="http://www.w3.org/1999/xlink" x="0px" y="0px"
	 viewBox="0 0 35 35" style="enable-background:new 0 0 35 35;" xml:space="preserve">
<style type="text/css">
	.st0{fill:#FFFFFF;}
	.st1{fill:none;}
</style>
<path class="st0" d="M32,1H3C1.9,1,1,1.9,1,3v29c0,1.1,0.9,2,2,2h29c1.1,0,2-0.9,2-2V3C34,1.9,33.1,1,32,1z"/>
<g>
	<path d="M32,0H3C1.3,0,0,1.4,0,3v29c0,1.7,1.3,3,3,3h29c1.7,0,3-1.3,3-3V3C35,1.4,33.7,0,32,0z M34,32c0,1.1-0.9,2-2,2H3
		c-1.1,0-2-0.9-2-2V3c0-1.1,0.9-2,2-2h29c1.1,0,2,0.9,2,2V32z"/>
</g>
<path d="M23.3,17.1c0-0.9-0.5-1.7-1.3-2.2c0.7-0.2,1.3-0.8,1.3-1.6c0-0.3-0.1-0.5-0.2-0.7c-0.4-1.5-1.4-2.7-2.6-3.4l-0.3-1.7
	c0.4-0.1,0.7-0.4,0.7-0.8V5c0-0.5-0.4-0.8-0.8-0.8h-5c-0.5,0-0.8,0.4-0.8,0.8v1.7c0,0.4,0.3,0.7,0.7,0.8l-0.3,1.7h0
	c-1.3,0.8-2.2,2-2.6,3.4c-0.1,0.2-0.2,0.5-0.2,0.7c0,0.8,0.5,1.4,1.3,1.6c-0.8,0.4-1.3,1.2-1.3,2.2c0,0.9,0.5,1.7,1.3,2.2
	c-0.7,0.2-1.3,0.8-1.3,1.6v8.3c0,0.9,0.7,1.7,1.7,1.7h8.3c0.9,0,1.7-0.7,1.7-1.7v-8.3c0-0.8-0.5-1.4-1.3-1.6
	C22.8,18.8,23.3,18,23.3,17.1z"/>
</svg>
