<?xml version="1.0" encoding="utf-8"?>
<!-- Generator: Adobe Illustrator 21.1.0, SVG Export Plug-In . SVG Version: 6.00 Build 0)  -->
<svg version="1.1" id="Layer_1" xmlns="http://www.w3.org/2000/svg" xmlns:xlink="http://www.w3.org/1999/xlink" x="0px" y="0px"
	 viewBox="0 0 35 35" style="enable-background:new 0 0 35 35;" xml:space="preserve">
<style type="text/css">
	.st0{fill:#FFFFFF;}
	.st1{fill:none;}
</style>
<path class="st0" d="M32,1H3C1.9,1,1,1.9,1,3v29c0,1.1,0.9,2,2,2h29c1.1,0,2-0.9,2-2V3C34,1.9,33.1,1,32,1z"/>
<g>
	<path d="M32,0H3C1.3,0,0,1.3,0,3v29c0,1.7,1.3,3,3,3h29c1.7,0,3-1.3,3-3V3C35,1.3,33.7,0,32,0z M34,32c0,1.1-0.9,2-2,2H3
		c-1.1,0-2-0.9-2-2V3c0-1.1,0.9-2,2-2h29c1.1,0,2,0.9,2,2V32z"/>
</g>
<path d="M13.9,2.5L11.9,6c-0.2,0.4-0.4,0.9-0.4,1.4v0.1c0,0.7,0.3,1.3,0.7,1.8c0.4,0.4,1,0.6,1.6,0.6c0.6,0,1.1-0.2,1.6-0.6
	c0.5-0.5,0.7-1.1,0.7-1.8V7.3c0-0.4-0.1-0.9-0.3-1.2L13.9,2.5z"/>
<path class="st1" d="M23.8,23.3c-0.5,0-0.9,0.4-0.9,0.9c0,0.5,0.4,0.9,0.9,0.9h2.7c0.5,0,0.9-0.4,0.9-0.9c0-0.5-0.4-0.9-0.9-0.9
	H23.8z"/>
<path class="st1" d="M9.8,16.6l-1.5,3c0.5-0.1,0.9-0.2,1.4-0.2h15.6c0.6,0,1.1,0.1,1.6,0.3l-1.5-3c0,0,0,0,0,0c-0.1,0-0.3,0-0.4,0
	c-0.8,0-1.7-0.2-2.4-0.6c0,0-0.6-0.4-0.9-0.6l0,0c-0.4-0.3-0.7-0.7-1-1.2l-0.3-0.6h-7.7C11.3,13.6,10.6,14.3,9.8,16.6z"/>
<path class="st1" d="M11.1,23.3H8.4c-0.5,0-0.9,0.4-0.9,0.9c0,0.5,0.4,0.9,0.9,0.9h2.7c0.5,0,0.9-0.4,0.9-0.9
	C12,23.7,11.6,23.3,11.1,23.3z"/>
<path class="st0" d="M23.9,3.8c0,0,0.1,0,0.2-0.1c-0.3,0-0.5,0.1-0.7,0.2c0.1,0,0.2,0.1,0.3,0.1C23.7,3.9,23.8,3.9,23.9,3.8z"/>
<g>
	<path class="st1" d="M23.8,23.3c-0.5,0-0.9,0.4-0.9,0.9c0,0.5,0.4,0.9,0.9,0.9h2.7c0.5,0,0.9-0.4,0.9-0.9c0-0.5-0.4-0.9-0.9-0.9
		H23.8z"/>
	<path class="st1" d="M9.8,16.6l-1.5,3c0.5-0.1,0.9-0.2,1.4-0.2h15.6c0.6,0,1.1,0.1,1.6,0.3l-1.5-3c0,0,0,0,0,0c-0.1,0-0.3,0-0.4,0
		c-0.8,0-1.7-0.2-2.4-0.6c0,0-0.6-0.4-0.9-0.6l0,0c-0.4-0.3-0.7-0.7-1-1.2l-0.3-0.6h-7.7C11.3,13.6,10.6,14.3,9.8,16.6z"/>
	<path class="st1" d="M11.1,23.3H8.4c-0.5,0-0.9,0.4-0.9,0.9c0,0.5,0.4,0.9,0.9,0.9h2.7c0.5,0,0.9-0.4,0.9-0.9
		C12,23.7,11.6,23.3,11.1,23.3z"/>
	<path d="M25.4,16.6l1.5,3c-0.5-0.2-1-0.3-1.6-0.3H9.7c-0.5,0-1,0.1-1.4,0.2l1.5-3c0.8-2.3,1.5-3,2.8-3h7.7l-1-1.6h-6.7
		C10,12,9,14,8.3,16.1l-2.2,5.1c-0.3,0.5-0.5,1.1-0.5,1.7v1.6c0,0.2,0,0.5,0.1,0.7c-0.1,0.1-0.1,0.3-0.1,0.4v4.7
		c0,0.7,0.6,1.3,1.3,1.3h2.6c0.7,0,1.3-0.6,1.3-1.3V28h13.6v2.4c0,0.7,0.6,1.3,1.3,1.3h2.5c0.7,0,1.3-0.6,1.3-1.3v-4.7
		c0-0.2,0-0.3-0.1-0.4c0.1-0.2,0.1-0.5,0.1-0.7v-1.6h0v0c0-0.5-0.1-0.9-0.3-1.3c0-0.1,0-0.2-0.1-0.3l-2.1-5.1
		C26.4,16.4,25.9,16.5,25.4,16.6C25.4,16.6,25.4,16.6,25.4,16.6z M11.1,25.1H8.4c-0.5,0-0.9-0.4-0.9-0.9c0-0.5,0.4-0.9,0.9-0.9h2.7
		c0.5,0,0.9,0.4,0.9,0.9C12,24.7,11.6,25.1,11.1,25.1z M27.5,24.2c0,0.5-0.4,0.9-0.9,0.9h-2.7c-0.5,0-0.9-0.4-0.9-0.9
		c0-0.5,0.4-0.9,0.9-0.9h2.7C27.1,23.3,27.5,23.7,27.5,24.2z"/>
</g>
<path class="st0" d="M27.9,7.4c0.2-0.6,0.7-1.1,1.3-1.1c0,0-0.1,0-0.1,0c-0.2,0-0.4-0.1-0.6-0.1c-0.4,0-0.9,0.1-1.2,0.4L27.9,7.4
	L27.9,7.4z"/>
<path d="M30.7,7c-0.2-0.4-0.5-0.6-0.9-0.7c-0.1,0-0.2,0-0.4,0c-0.1,0-0.1,0-0.2,0c-0.6,0.1-1.2,0.5-1.3,1.1l0,0.1l-0.6-1l-1.2-2
	c-0.3-0.5-0.6-0.7-0.8-0.8c-0.2-0.1-0.4-0.1-0.6-0.1c-0.2,0-0.4,0.1-0.6,0.1c-0.1,0-0.1,0-0.2,0.1c-0.1,0.1-0.2,0.2-0.3,0.3
	c-0.1-0.1-0.2-0.1-0.3-0.1c-0.2-0.1-0.4-0.2-0.7-0.2c-0.2,0-0.5,0.1-0.7,0.2c0,0-0.1,0-0.1,0c-0.5,0.3-0.8,0.9-0.7,1.6
	c-0.1,0-0.3,0.1-0.4,0.2C20.3,6,20,6.6,20.1,7.2c-0.1,0-0.3,0.1-0.4,0.2c-0.4,0.2-0.6,0.5-0.7,0.9c-0.1,0.4,0,0.8,0.2,1.2l2.4,4.1
	c0.2,0.4,0.5,0.7,0.9,1c0.1,0.1,0.7,0.5,0.8,0.6c0.7,0.4,1.4,0.6,2.2,0.6c0.8,0,1.6-0.2,2.3-0.6c1-0.6,1.8-1.6,2.1-2.8l1-4l0.1-0.3
	C31,7.7,30.9,7.3,30.7,7z M22.6,13l-2.4-4.1c-0.1-0.1-0.1-0.2,0-0.3c0-0.1,0.1-0.2,0.2-0.2c0.1,0,0.1-0.1,0.2-0.1
	c0.1,0,0.3,0.1,0.3,0.2l0.9,1.6c0.1,0.2,0.3,0.3,0.5,0.3c0.1,0,0.2,0,0.3-0.1c0.3-0.1,0.3-0.5,0.2-0.7l-1.4-2.4
	c-0.1-0.2,0-0.4,0.1-0.5c0.1,0,0.1-0.1,0.2-0.1c0.1,0,0.3,0.1,0.3,0.2l1.4,2.4c0.1,0.2,0.3,0.3,0.5,0.3c0.1,0,0.2,0,0.3-0.1
	c0.3-0.1,0.3-0.5,0.2-0.7l-1.9-3.1c-0.1-0.2,0-0.4,0.1-0.5c0.1,0,0.1-0.1,0.2-0.1c0.1,0,0.3,0.1,0.3,0.2l1.9,3.1
	c0.1,0.2,0.3,0.3,0.5,0.3c0.1,0,0.2,0,0.3-0.1c0.1-0.1,0.2-0.2,0.2-0.3c0-0.1,0-0.3-0.1-0.4l-1.4-2.4c-0.1-0.2,0-0.4,0.1-0.5
	c0.1,0,0.1-0.1,0.2-0.1c0.1,0,0.3,0.1,0.3,0.2l2.6,4.4c0.1,0.2,0.3,0.3,0.5,0.3c0.2,0,0.5-0.2,0.5-0.4L29,7.6c0-0.2,0.2-0.3,0.4-0.3
	c0,0,0,0,0,0c0.2,0.1,0.3,0.3,0.3,0.5l-1.1,4.2c-0.2,0.9-0.8,1.6-1.5,2.1c-0.5,0.3-1.1,0.5-1.7,0.5C24.3,14.6,23.2,14,22.6,13z"/>
</svg>
