<?xml version="1.0" encoding="utf-8"?>
<!-- Generator: Adobe Illustrator 21.1.0, SVG Export Plug-In . SVG Version: 6.00 Build 0)  -->
<svg version="1.1" id="Layer_1" xmlns="http://www.w3.org/2000/svg" xmlns:xlink="http://www.w3.org/1999/xlink" x="0px" y="0px"
	 viewBox="0 0 35 35" style="enable-background:new 0 0 35 35;" xml:space="preserve">
<style type="text/css">
	.st0{fill:#FFFFFF;}
	.st1{fill:none;}
</style>
<g>
	<path class="st0" d="M32,1H3C1.9,1,1,1.9,1,3v29c0,1.1,0.9,2,2,2h29c1.1,0,2-0.9,2-2V3C34,1.9,33.1,1,32,1z M25.6,27.6l-16.2,0h0
		c-0.9,0-1.8-0.4-2.4-1.1c-0.6-0.7-1-1.6-1-2.5c0-1.3,0.6-2.4,1.6-3.1v0l8.5-5.6v-0.7c0-0.8,0.6-1.4,1.4-1.4c0.8,0,1.4-0.6,1.4-1.4
		c0-0.8-0.6-1.4-1.4-1.4c-0.8,0-1.4,0.6-1.4,1.4h-2.9c0-2.4,1.9-4.3,4.3-4.3s4.3,1.9,4.3,4.3c0,1.7-1,3.2-2.4,3.9l8,5.3h0
		c1,0.7,1.6,1.8,1.6,3.1C29,25.9,27.5,27.6,25.6,27.6z"/>
	<path class="st0" d="M17.5,17.8l-8.3,5.5C9,23.4,8.9,23.7,8.9,24c0,0.2,0,0.4,0.2,0.6c0.1,0.1,0.2,0.2,0.3,0.2h16.2
		c0.2,0,0.5-0.3,0.5-0.7c0-0.3-0.1-0.5-0.3-0.7L17.5,17.8z"/>
	<path d="M32,0H3C1.3,0,0,1.3,0,3v29c0,1.7,1.3,3,3,3h29c1.7,0,3-1.3,3-3V3C35,1.3,33.7,0,32,0z M34,32c0,1.1-0.9,2-2,2H3
		c-1.1,0-2-0.9-2-2V3c0-1.1,0.9-2,2-2h29c1.1,0,2,0.9,2,2V32z"/>
	<path d="M27.4,20.9L27.4,20.9l-8-5.3c1.4-0.7,2.4-2.2,2.4-3.9c0-2.4-1.9-4.3-4.3-4.3s-4.3,1.9-4.3,4.3h2.9c0-0.8,0.6-1.4,1.4-1.4
		c0.8,0,1.4,0.6,1.4,1.4c0,0.8-0.6,1.4-1.4,1.4c-0.8,0-1.4,0.6-1.4,1.4v0.7l-8.5,5.6v0C6.6,21.6,6,22.7,6,24c0,1,0.4,1.9,1,2.5
		c0.6,0.7,1.5,1.1,2.4,1.1h0l16.2,0c1.9,0,3.4-1.6,3.4-3.6C29,22.7,28.4,21.6,27.4,20.9z M25.6,24.7H9.4c-0.1,0-0.2,0-0.3-0.2
		c-0.2-0.2-0.2-0.4-0.2-0.6c0-0.3,0.1-0.5,0.3-0.7l8.3-5.5l8.3,5.5c0.2,0.1,0.3,0.4,0.3,0.7C26.1,24.4,25.9,24.7,25.6,24.7z"/>
</g>
</svg>
