<?xml version="1.0" encoding="utf-8"?>
<!-- Generator: Adobe Illustrator 21.1.0, SVG Export Plug-In . SVG Version: 6.00 Build 0)  -->
<svg version="1.1" id="Layer_1" xmlns="http://www.w3.org/2000/svg" xmlns:xlink="http://www.w3.org/1999/xlink" x="0px" y="0px"
	 viewBox="0 0 35 35" style="enable-background:new 0 0 35 35;" xml:space="preserve">
<style type="text/css">
	.st0{fill:#FFFFFF;}
	.st1{fill:none;}
</style>
<g>
	<path class="st0" d="M32,1H3C1.9,1,1,1.9,1,3v29c0,1.1,0.9,2,2,2h29c1.1,0,2-0.9,2-2V3C34,1.9,33.1,1,32,1z M17.5,29.3
		C11,29.3,5.7,24,5.7,17.5S11,5.7,17.5,5.7c6.5,0,11.8,5.3,11.8,11.8S24,29.3,17.5,29.3z"/>
	<path d="M32,0H3C1.3,0,0,1.3,0,3v29c0,1.7,1.3,3,3,3h29c1.7,0,3-1.3,3-3V3C35,1.3,33.7,0,32,0z M34,32c0,1.1-0.9,2-2,2H3
		c-1.1,0-2-0.9-2-2V3c0-1.1,0.9-2,2-2h29c1.1,0,2,0.9,2,2V32z"/>
	<g>
		<path d="M17.5,5.7C11,5.7,5.7,11,5.7,17.5S11,29.3,17.5,29.3c6.5,0,11.8-5.3,11.8-11.8S24,5.7,17.5,5.7z M17.5,24.8
			c-4.1,0-7.3-3.5-7.3-7.3c0-3.9,3.2-7.3,7.3-7.3c4.1,0,7.3,3.5,7.3,7.3C24.8,21.4,21.6,24.8,17.5,24.8z"/>
		<path d="M19.9,15.3l2.3-1.3c-1-1.3-2.4-2.1-4.1-2.3v2.7c-0.2,0-0.5-0.1-0.7-0.1c-0.2,0-0.5,0-0.7,0.1v-2.7
			c-1.7,0.2-3.1,1.1-4.1,2.3l2.3,1.3c-0.3,0.3-0.5,0.7-0.7,1.2l-2.3-1.3c-0.3,0.7-0.5,1.5-0.5,2.3s0.2,1.6,0.5,2.3l2.3-1.3
			c0.1,0.4,0.4,0.9,0.7,1.2L12.8,21c1,1.3,2.4,2.1,4.1,2.3v-2.7c0.2,0,0.5,0.1,0.7,0.1c0.2,0,0.5,0,0.7-0.1v2.7
			c1.7-0.2,3.1-1.1,4.1-2.3l-2.3-1.3c0.3-0.3,0.5-0.7,0.7-1.2l2.3,1.3c0.3-0.7,0.5-1.5,0.5-2.3s-0.2-1.6-0.5-2.3l-2.3,1.3
			C20.5,16,20.2,15.6,19.9,15.3z M17.5,18.8c-0.7,0-1.3-0.6-1.3-1.3s0.6-1.3,1.3-1.3s1.3,0.6,1.3,1.3S18.2,18.8,17.5,18.8z"/>
	</g>
</g>
</svg>
