<?xml version="1.0" encoding="utf-8"?>
<!-- Generator: Adobe Illustrator 21.1.0, SVG Export Plug-In . SVG Version: 6.00 Build 0)  -->
<svg version="1.1" id="Layer_1" xmlns="http://www.w3.org/2000/svg" xmlns:xlink="http://www.w3.org/1999/xlink" x="0px" y="0px"
	 viewBox="0 0 35 35" style="enable-background:new 0 0 35 35;" xml:space="preserve">
<style type="text/css">
	.st0{fill:#FFFFFF;}
	.st1{fill:none;}
</style>
<g>
	<polygon class="st0" points="9.2,21.3 8.4,24.4 10.7,26.7 13.8,25.9 14.7,22.7 12.4,20.4 	"/>
	<path class="st0" d="M32,1.1H3c-1.1,0-2,0.9-2,2v29c0,1.1,0.9,2,2,2h29c1.1,0,2-0.9,2-2v-29C34,2,33.1,1.1,32,1.1z M27.5,16.5
		c-1.8,1.8-4.5,2.3-6.8,1.4L17,21.6c0.7,2.1,0.3,4.5-1.4,6.1c-2.3,2.3-6,2.3-8.3,0c-2.3-2.3-2.3-6,0-8.3c1.7-1.7,4.1-2.1,6.1-1.4
		l3.7-3.7c-0.9-2.3-0.4-4.9,1.4-6.8c1.8-1.8,4.3-2.3,6.5-1.5l-3.5,3.5c-0.3,0.3-0.3,0.8,0,1.1l2.8,2.8c0.3,0.3,0.8,0.3,1.1,0L29,10
		C29.8,12.2,29.3,14.8,27.5,16.5z"/>
	<path d="M32,0.1H3c-1.7,0-3,1.3-3,3v29c0,1.7,1.3,3,3,3h29c1.7,0,3-1.3,3-3v-29C35,1.4,33.7,0.1,32,0.1z M34,32.1c0,1.1-0.9,2-2,2
		H3c-1.1,0-2-0.9-2-2v-29c0-1.1,0.9-2,2-2h29c1.1,0,2,0.9,2,2V32.1z"/>
	<path d="M25.5,13.5c-0.3,0.3-0.8,0.3-1.1,0l-2.8-2.8c-0.3-0.3-0.3-0.8,0-1.1l3.5-3.5c-2.2-0.8-4.7-0.3-6.5,1.5
		c-1.8,1.8-2.3,4.5-1.4,6.8l-3.7,3.7c-2.1-0.7-4.5-0.3-6.1,1.4c-2.3,2.3-2.3,6,0,8.3c2.3,2.3,6,2.3,8.3,0c1.7-1.7,2.1-4.1,1.4-6.1
		l3.7-3.7c2.3,0.9,4.9,0.4,6.8-1.4c1.8-1.8,2.3-4.3,1.5-6.5L25.5,13.5z M13.8,25.9l-3.1,0.8l-2.3-2.3l0.8-3.1l3.1-0.8l2.3,2.3
		L13.8,25.9z"/>
</g>
</svg>
