<?xml version="1.0" encoding="utf-8"?>
<!-- Generator: Adobe Illustrator 21.1.0, SVG Export Plug-In . SVG Version: 6.00 Build 0)  -->
<svg version="1.1" id="Layer_1" xmlns="http://www.w3.org/2000/svg" xmlns:xlink="http://www.w3.org/1999/xlink" x="0px" y="0px"
	 viewBox="0 0 35 35" style="enable-background:new 0 0 35 35;" xml:space="preserve">
<style type="text/css">
	.st0{fill:#FFFFFF;}
	.st1{fill:none;}
</style>
<g>
	<path class="st0" d="M32,1H3C1.9,1,1,1.9,1,3v29c0,1.1,0.9,2,2,2h29c1.1,0,2-0.9,2-2V3C34,1.9,33.1,1,32,1z M24.4,30.2H10.7v-0.2
		c0-1.1,0.9-2,2-2h2.1V15.8h2.1V9h-4.6c-0.3,0-0.5-0.2-0.5-0.5V6.3c0-0.3,0.2-0.5,0.5-0.5h10.5c0.3,0,0.5,0.2,0.5,0.5v2.3
		c0,0.3-0.2,0.5-0.5,0.5h-4.6v6.8h2.1l0,12.1h2.1c1.1,0,2,0.9,2,2V30.2z M25.5,14.4c0,0.2-0.1,0.3-0.3,0.4v7c0,1.8-0.6,4.9-4.8,4.9
		v-1.5c1.6,0,3.3-0.4,3.3-3.4v-6.9c-0.2-0.1-0.3-0.2-0.4-0.4l-0.2-2.5h2.6L25.5,14.4z"/>
	<g>
		<path d="M32,0H3C1.3,0,0,1.3,0,3v29c0,1.7,1.3,3,3,3h29c1.7,0,3-1.3,3-3V3C35,1.3,33.7,0,32,0z M34,32c0,1.1-0.9,2-2,2H3
			c-1.1,0-2-0.9-2-2V3c0-1.1,0.9-2,2-2h29c1.1,0,2,0.9,2,2V32z"/>
		<path d="M22.4,27.9h-2.1l0-12.1h-2.1V9h4.6c0.3,0,0.5-0.2,0.5-0.5V6.3c0-0.3-0.2-0.5-0.5-0.5H12.3c-0.3,0-0.5,0.2-0.5,0.5v2.3
			c0,0.3,0.2,0.5,0.5,0.5h4.6v6.8h-2.1v12.1h-2.1c-1.1,0-2,0.9-2,2v0.2h13.7v-0.2C24.4,28.8,23.5,27.9,22.4,27.9z"/>
		<path d="M23.3,14.4c0,0.2,0.2,0.3,0.4,0.4v6.9c0,3-1.8,3.4-3.3,3.4v1.5c4.2,0,4.8-3.1,4.8-4.9v-7c0.1-0.1,0.3-0.2,0.3-0.4l0.3-2.6
			h-2.6L23.3,14.4z"/>
	</g>
</g>
</svg>
