<?xml version="1.0" encoding="utf-8"?>
<!-- Generator: Adobe Illustrator 21.1.0, SVG Export Plug-In . SVG Version: 6.00 Build 0)  -->
<svg version="1.1" id="Layer_1" xmlns="http://www.w3.org/2000/svg" xmlns:xlink="http://www.w3.org/1999/xlink" x="0px" y="0px"
	 viewBox="0 0 35 35" style="enable-background:new 0 0 35 35;" xml:space="preserve">
<style type="text/css">
	.st0{fill:#FFFFFF;}
	.st1{fill:none;}
</style>
<g>
	<path class="st0" d="M32,1H3C1.9,1,1,1.9,1,3v29c0,1.1,0.9,2,2,2h29c1.1,0,2-0.9,2-2V3C34,1.9,33.1,1,32,1z M28.6,16.5
		c-0.6,0.7-1.9,1.4-2.6,1.7V22c0,0,0,0,0,0c0.2,0.1,0.4,0.3,0.6,0.5c0.2,0.2,0.4,0.5,0.6,0.8c0.4,0.7,0.6,1.4,0.6,2.2
		c0,0.8-0.2,1.6-0.7,2.3c-0.2,0.3-0.5,0.7-0.9,0.9c-0.4,0.3-0.8,0.5-1.2,0.7c-0.4,0.2-0.9,0.2-1.3,0.2c-0.5,0-0.9-0.1-1.3-0.2
		c-0.4-0.1-0.8-0.3-1.1-0.6c-0.1-0.1-0.2-0.2-0.3-0.3c0,0,0,0,0,0h-4.5c-0.5,0-0.9-0.7-0.9-1.2l0.9-5.7c1.4-6.9,6.7-7.3,7.2-7.3h1.9
		c0.5,0,0.5,0,0.5,0.5v1.1V16c0.3-0.2,1-0.6,1.2-0.8c0.7-0.8,0.9-2.4,0.7-4.9C27.7,9,27.1,8.1,26,7.5c-1.4-0.8-3.5-0.8-5.4,0
		c-1.7,0.8-3,2.5-3.8,3.8c-0.3,0.6-0.6,1.2-0.9,1.7l-4,8.8c0.1,0,0.2,0.2,0.2,0.3l-2,4.5h0.7c0.5,0,0.9,0.4,0.9,0.9
		s-0.4,0.9-0.9,0.9H6.1c-0.5,0-0.9-0.4-0.9-0.9s0.4-0.9,0.9-0.9h1.2l2.1-4.7c0.1-0.2,0.3-0.4,0.6-0.4l4.1-9c0-0.1,0.6-1.3,1-2
		c0.9-1.6,2.5-3.8,4.8-4.8c2.4-1.1,5.1-1,7.1,0.1c1.6,0.9,2.5,2.4,2.7,4.3C30.1,13.2,29.7,15.2,28.6,16.5z"/>
	<path d="M32,0H3C1.3,0,0,1.3,0,3v29c0,1.7,1.3,3,3,3h29c1.7,0,3-1.3,3-3V3C35,1.3,33.7,0,32,0z M34,32c0,1.1-0.9,2-2,2H3
		c-1.1,0-2-0.9-2-2V3c0-1.1,0.9-2,2-2h29c1.1,0,2,0.9,2,2V32z"/>
	<path class="st0" d="M25.6,23.6c-0.1-0.1-0.3-0.2-0.4-0.3c-0.4-0.3-0.9-0.4-1.4-0.4c-1.4,0-2.6,1.2-2.6,2.6c0,0.8,0.4,1.6,1,2.1
		c0.2,0.2,0.5,0.3,0.7,0.4c0.3,0.1,0.6,0.1,0.9,0.1s0.6-0.1,0.9-0.1c0.3-0.1,0.5-0.2,0.8-0.4c0.2-0.2,0.4-0.4,0.6-0.6
		c0.3-0.4,0.4-0.9,0.4-1.5c0-0.5-0.1-1-0.4-1.4C25.9,23.9,25.8,23.8,25.6,23.6z"/>
	<path d="M27,5.8c-2-1.1-4.7-1.2-7.1-0.1c-2.2,1-3.8,3.1-4.8,4.8c-0.4,0.7-1,2-1,2l-4.1,9c-0.3,0-0.5,0.2-0.6,0.4l-2.1,4.7H6.1
		c-0.5,0-0.9,0.4-0.9,0.9s0.4,0.9,0.9,0.9h4.7c0.5,0,0.9-0.4,0.9-0.9s-0.4-0.9-0.9-0.9h-0.7l2-4.5c0.1-0.1,0-0.3-0.2-0.3l4-8.8
		c0.2-0.4,0.6-1.1,0.9-1.7c0.8-1.4,2.1-3.1,3.8-3.8c1.8-0.8,3.9-0.8,5.4,0c1.1,0.6,1.7,1.6,1.8,2.9c0.3,2.4,0,4.1-0.7,4.9
		C27,15.4,26.3,15.8,26,16v-0.2v-1.1c0-0.5,0-0.5-0.5-0.5h-1.9c-0.5,0-5.8,0.4-7.2,7.3l-0.9,5.7c0,0.5,0.4,1.2,0.9,1.2H21
		c0,0,0,0,0,0c0.1,0.1,0.2,0.2,0.3,0.3c0.3,0.3,0.7,0.5,1.1,0.6c0.4,0.2,0.9,0.2,1.3,0.2c0.5,0,0.9-0.1,1.3-0.2
		c0.4-0.1,0.8-0.4,1.2-0.7c0.3-0.3,0.6-0.6,0.9-0.9c0.5-0.7,0.7-1.5,0.7-2.3c0-0.8-0.2-1.5-0.6-2.2c-0.2-0.3-0.4-0.5-0.6-0.8
		c-0.2-0.2-0.4-0.3-0.6-0.5c0,0,0,0,0,0v-3.9c0.7-0.3,2-1,2.6-1.7c1.1-1.2,1.5-3.3,1.1-6.3C29.5,8.2,28.5,6.7,27,5.8z M26.4,25.5
		c0,0.5-0.2,1-0.4,1.5c-0.2,0.2-0.3,0.4-0.6,0.6c-0.2,0.2-0.5,0.3-0.8,0.4c-0.3,0.1-0.6,0.1-0.9,0.1s-0.6-0.1-0.9-0.1
		c-0.3-0.1-0.5-0.2-0.7-0.4c-0.6-0.5-1-1.2-1-2.1c0-1.4,1.2-2.6,2.6-2.6c0.5,0,1,0.2,1.4,0.4c0.1,0.1,0.3,0.2,0.4,0.3
		c0.1,0.1,0.3,0.3,0.4,0.5C26.3,24.5,26.4,25,26.4,25.5z"/>
</g>
</svg>
