<?xml version="1.0" encoding="utf-8"?>
<!-- Generator: Adobe Illustrator 21.1.0, SVG Export Plug-In . SVG Version: 6.00 Build 0)  -->
<svg version="1.1" id="Layer_1" xmlns="http://www.w3.org/2000/svg" xmlns:xlink="http://www.w3.org/1999/xlink" x="0px" y="0px"
	 viewBox="0 0 35 35" style="enable-background:new 0 0 35 35;" xml:space="preserve">
<style type="text/css">
	.st0{fill:#FFFFFF;}
	.st1{fill:none;}
</style>
<path class="st0" d="M32,1H3C1.9,1,1,1.9,1,3v29c0,1.1,0.9,2,2,2h29c1.1,0,2-0.9,2-2V3C34,1.9,33.1,1,32,1z"/>
<g>
	<path d="M32,0H3C1.3,0,0,1.3,0,3v29c0,1.7,1.3,3,3,3h29c1.7,0,3-1.3,3-3V3C35,1.3,33.7,0,32,0z M34,32c0,1.1-0.9,2-2,2H3
		c-1.1,0-2-0.9-2-2V3c0-1.1,0.9-2,2-2h29c1.1,0,2,0.9,2,2V32z"/>
</g>
<g>
	<g>
		<g>
			<g>
				<path d="M26.6,11.3l-5.1-5.1c-0.4-0.4-0.9-0.6-1.4-0.6H9.9c-1.1,0-2,0.9-2,2v19.8c0,1.1,0.9,2,2,2h15.3c1.1,0,2-0.9,2-2V12.7
					C27.2,12.2,27,11.7,26.6,11.3z M21,13.1c-0.7,0-1.3-0.6-1.3-1.3V7.1l5.9,6L21,13.1z"/>
			</g>
		</g>
	</g>
	<g>
		<path class="st0" d="M23.1,17.9H11.9c-0.3,0-0.5-0.2-0.5-0.5s0.2-0.5,0.5-0.5h11.2c0.3,0,0.5,0.2,0.5,0.5S23.4,17.9,23.1,17.9z"/>
	</g>
	<g>
		<path class="st0" d="M23.1,22.1H11.9c-0.3,0-0.5-0.2-0.5-0.5s0.2-0.5,0.5-0.5h11.2c0.3,0,0.5,0.2,0.5,0.5S23.4,22.1,23.1,22.1z"/>
	</g>
	<g>
		<path class="st0" d="M16.7,25.4h-4.8c-0.3,0-0.5-0.2-0.5-0.5s0.2-0.5,0.5-0.5h4.8c0.3,0,0.5,0.2,0.5,0.5S17,25.4,16.7,25.4z"/>
	</g>
</g>
</svg>
